<?xml version="1.0" encoding="UTF-8"?>
<!--Generator: Apple Native CoreSVG 149-->
<!DOCTYPE svg
PUBLIC "-//W3C//DTD SVG 1.1//EN"
       "http://www.w3.org/Graphics/SVG/1.1/DTD/svg11.dtd">
<svg version="1.1" xmlns="http://www.w3.org/2000/svg" xmlns:xlink="http://www.w3.org/1999/xlink" width="3300" height="2200">
 <!--glyph: "uni100307.medium", point size: 100.000000, font version: "Version 16.0d18e1", template writer version: "8"-->
 <g id="Notes">
  <rect height="2200" id="artboard" style="fill:white;opacity:1" width="3300" x="0" y="0"/>
  <line id="" style="fill:none;stroke:black;opacity:1;stroke-width:0.5;" x1="263" x2="3036" y1="292" y2="292"/>
  <text style="stroke:none;fill:black;font-family:-apple-system,&quot;SF Pro Display&quot;,&quot;SF Pro Text&quot;,Helvetica,sans-serif;font-weight:bold;" transform="matrix(1 0 0 1 263 322)">Weight/Scale Variations</text>
  <text style="stroke:none;fill:black;font-family:-apple-system,&quot;SF Pro Display&quot;,&quot;SF Pro Text&quot;,Helvetica,sans-serif;text-anchor:middle;" transform="matrix(1 0 0 1 559.711 322)">Ultralight</text>
  <text style="stroke:none;fill:black;font-family:-apple-system,&quot;SF Pro Display&quot;,&quot;SF Pro Text&quot;,Helvetica,sans-serif;text-anchor:middle;" transform="matrix(1 0 0 1 856.422 322)">Thin</text>
  <text style="stroke:none;fill:black;font-family:-apple-system,&quot;SF Pro Display&quot;,&quot;SF Pro Text&quot;,Helvetica,sans-serif;text-anchor:middle;" transform="matrix(1 0 0 1 1153.13 322)">Light</text>
  <text style="stroke:none;fill:black;font-family:-apple-system,&quot;SF Pro Display&quot;,&quot;SF Pro Text&quot;,Helvetica,sans-serif;text-anchor:middle;" transform="matrix(1 0 0 1 1449.84 322)">Regular</text>
  <text style="stroke:none;fill:black;font-family:-apple-system,&quot;SF Pro Display&quot;,&quot;SF Pro Text&quot;,Helvetica,sans-serif;text-anchor:middle;" transform="matrix(1 0 0 1 1746.56 322)">Medium</text>
  <text style="stroke:none;fill:black;font-family:-apple-system,&quot;SF Pro Display&quot;,&quot;SF Pro Text&quot;,Helvetica,sans-serif;text-anchor:middle;" transform="matrix(1 0 0 1 2043.27 322)">Semibold</text>
  <text style="stroke:none;fill:black;font-family:-apple-system,&quot;SF Pro Display&quot;,&quot;SF Pro Text&quot;,Helvetica,sans-serif;text-anchor:middle;" transform="matrix(1 0 0 1 2339.98 322)">Bold</text>
  <text style="stroke:none;fill:black;font-family:-apple-system,&quot;SF Pro Display&quot;,&quot;SF Pro Text&quot;,Helvetica,sans-serif;text-anchor:middle;" transform="matrix(1 0 0 1 2636.69 322)">Heavy</text>
  <text style="stroke:none;fill:black;font-family:-apple-system,&quot;SF Pro Display&quot;,&quot;SF Pro Text&quot;,Helvetica,sans-serif;text-anchor:middle;" transform="matrix(1 0 0 1 2933.4 322)">Black</text>
  <line id="" style="fill:none;stroke:black;opacity:1;stroke-width:0.5;" x1="263" x2="3036" y1="1903" y2="1903"/>
  <g id="" transform="matrix(1 0 0 1 263 1933)">
   <path d="M9.24805 0.830078C13.5547 0.830078 17.1387-2.74414 17.1387-7.05078C17.1387-11.3574 13.5449-14.9316 9.23828-14.9316C4.94141-14.9316 1.36719-11.3574 1.36719-7.05078C1.36719-2.74414 4.95117 0.830078 9.24805 0.830078ZM9.24805-0.654297C5.70312-0.654297 2.87109-3.49609 2.87109-7.05078C2.87109-10.6055 5.69336-13.4473 9.23828-13.4473C12.793-13.4473 15.6348-10.6055 15.6445-7.05078C15.6543-3.49609 12.8027-0.654297 9.24805-0.654297ZM6.39648-6.31836L8.50586-6.31836L8.50586-4.19922C8.50586-3.75977 8.79883-3.45703 9.22852-3.45703C9.67773-3.45703 9.9707-3.75977 9.9707-4.19922L9.9707-6.31836L12.0996-6.31836C12.5391-6.31836 12.8418-6.61133 12.8418-7.04102C12.8418-7.48047 12.5391-7.7832 12.0996-7.7832L9.9707-7.7832L9.9707-9.89258C9.9707-10.3418 9.67773-10.6445 9.22852-10.6445C8.79883-10.6445 8.50586-10.3418 8.50586-9.89258L8.50586-7.7832L6.39648-7.7832C5.94727-7.7832 5.64453-7.48047 5.64453-7.04102C5.64453-6.61133 5.94727-6.31836 6.39648-6.31836Z"/>
  </g>
  <g id="" transform="matrix(1 0 0 1 281.506 1933)">
   <path d="M11.709 2.91016C17.1582 2.91016 21.6699-1.61133 21.6699-7.05078C21.6699-12.5 17.1484-17.0117 11.6992-17.0117C6.25977-17.0117 1.74805-12.5 1.74805-7.05078C1.74805-1.61133 6.26953 2.91016 11.709 2.91016ZM11.709 1.25C7.09961 1.25 3.41797-2.44141 3.41797-7.05078C3.41797-11.6602 7.08984-15.3516 11.6992-15.3516C16.3086-15.3516 20-11.6602 20.0098-7.05078C20.0195-2.44141 16.3184 1.25 11.709 1.25ZM7.98828-6.23047L10.8789-6.23047L10.8789-3.32031C10.8789-2.83203 11.2109-2.5 11.6895-2.5C12.1777-2.5 12.5195-2.83203 12.5195-3.32031L12.5195-6.23047L15.4297-6.23047C15.918-6.23047 16.25-6.5625 16.25-7.04102C16.25-7.5293 15.918-7.87109 15.4297-7.87109L12.5195-7.87109L12.5195-10.7617C12.5195-11.2695 12.1777-11.6016 11.6895-11.6016C11.2109-11.6016 10.8789-11.2598 10.8789-10.7617L10.8789-7.87109L7.98828-7.87109C7.48047-7.87109 7.14844-7.5293 7.14844-7.04102C7.14844-6.5625 7.49023-6.23047 7.98828-6.23047Z"/>
  </g>
  <g id="" transform="matrix(1 0 0 1 304.924 1933)">
   <path d="M14.9707 5.66406C21.9336 5.66406 27.6953-0.0976562 27.6953-7.05078C27.6953-14.0137 21.9238-19.7754 14.9609-19.7754C8.00781-19.7754 2.25586-14.0137 2.25586-7.05078C2.25586-0.0976562 8.01758 5.66406 14.9707 5.66406ZM14.9707 3.84766C8.93555 3.84766 4.08203-1.01562 4.08203-7.05078C4.08203-13.0957 8.92578-17.9492 14.9609-17.9492C21.0059-17.9492 25.8594-13.0957 25.8691-7.05078C25.8789-1.01562 21.0156 3.84766 14.9707 3.84766ZM10.0586-6.14258L14.0625-6.14258L14.0625-2.12891C14.0625-1.5918 14.4336-1.2207 14.9512-1.2207C15.4883-1.2207 15.8594-1.5918 15.8594-2.12891L15.8594-6.14258L19.8828-6.14258C20.4102-6.14258 20.791-6.51367 20.791-7.03125C20.791-7.56836 20.4199-7.94922 19.8828-7.94922L15.8594-7.94922L15.8594-11.9531C15.8594-12.5098 15.4883-12.8809 14.9512-12.8809C14.4336-12.8809 14.0625-12.5 14.0625-11.9531L14.0625-7.94922L10.0586-7.94922C9.50195-7.94922 9.13086-7.56836 9.13086-7.03125C9.13086-6.51367 9.51172-6.14258 10.0586-6.14258Z"/>
  </g>
  <text style="stroke:none;fill:black;font-family:-apple-system,&quot;SF Pro Display&quot;,&quot;SF Pro Text&quot;,Helvetica,sans-serif;font-weight:bold;" transform="matrix(1 0 0 1 263 1953)">Design Variations</text>
  <text style="stroke:none;fill:black;font-family:-apple-system,&quot;SF Pro Display&quot;,&quot;SF Pro Text&quot;,Helvetica,sans-serif;" transform="matrix(1 0 0 1 263 1971)">Symbols are supported in up to nine weights and three scales.</text>
  <text style="stroke:none;fill:black;font-family:-apple-system,&quot;SF Pro Display&quot;,&quot;SF Pro Text&quot;,Helvetica,sans-serif;" transform="matrix(1 0 0 1 263 1989)">For optimal layout with text and other symbols, vertically align</text>
  <text style="stroke:none;fill:black;font-family:-apple-system,&quot;SF Pro Display&quot;,&quot;SF Pro Text&quot;,Helvetica,sans-serif;" transform="matrix(1 0 0 1 263 2007)">symbols with the adjacent text.</text>
  <line id="" style="fill:none;stroke:#00AEEF;stroke-width:0.5;opacity:1.0;" x1="776" x2="776" y1="1919" y2="1933"/>
  <g id="" transform="matrix(1 0 0 1 776 1933)">
   <path d="M3.31055 0.126953C3.82812 0.126953 4.08203-0.0683594 4.26758-0.605469L5.52734-4.0625L11.2891-4.0625L12.5488-0.605469C12.7344-0.0683594 12.9883 0.126953 13.4961 0.126953C14.0137 0.126953 14.3457-0.185547 14.3457-0.673828C14.3457-0.839844 14.3164-0.986328 14.2383-1.20117L9.6582-13.3887C9.43359-13.9941 9.0332-14.2871 8.4082-14.2871C7.80273-14.2871 7.39258-13.9941 7.17773-13.3984L2.59766-1.19141C2.51953-0.976562 2.49023-0.830078 2.49023-0.664062C2.49023-0.175781 2.80273 0.126953 3.31055 0.126953ZM6.00586-5.53711L8.37891-12.1094L8.42773-12.1094L10.8008-5.53711Z"/>
  </g>
  <line id="" style="fill:none;stroke:#00AEEF;stroke-width:0.5;opacity:1.0;" x1="792.836" x2="792.836" y1="1919" y2="1933"/>
  <text style="stroke:none;fill:black;font-family:-apple-system,&quot;SF Pro Display&quot;,&quot;SF Pro Text&quot;,Helvetica,sans-serif;font-weight:bold;" transform="matrix(1 0 0 1 776 1953)">Margins</text>
  <text style="stroke:none;fill:black;font-family:-apple-system,&quot;SF Pro Display&quot;,&quot;SF Pro Text&quot;,Helvetica,sans-serif;" transform="matrix(1 0 0 1 776 1971)">Leading and trailing margins on the left and right side of each symbol</text>
  <text style="stroke:none;fill:black;font-family:-apple-system,&quot;SF Pro Display&quot;,&quot;SF Pro Text&quot;,Helvetica,sans-serif;" transform="matrix(1 0 0 1 776 1989)">can be adjusted by modifying the x-location of the margin guidelines.</text>
  <text style="stroke:none;fill:black;font-family:-apple-system,&quot;SF Pro Display&quot;,&quot;SF Pro Text&quot;,Helvetica,sans-serif;" transform="matrix(1 0 0 1 776 2007)">Modifications are automatically applied proportionally to all</text>
  <text style="stroke:none;fill:black;font-family:-apple-system,&quot;SF Pro Display&quot;,&quot;SF Pro Text&quot;,Helvetica,sans-serif;" transform="matrix(1 0 0 1 776 2025)">scales and weights.</text>
  <g id="" transform="matrix(1 0 0 1 1289 1933)">
   <path d="M2.8418 1.86523L4.54102 3.57422C5.40039 4.44336 6.38672 4.38477 7.31445 3.35938L17.4902-7.85156C17.7539-7.76367 18.0273-7.7832 18.3398-7.8418L19.4043-8.03711L20.0684-7.36328L20.0293-6.80664C19.9902-6.30859 20.1172-5.92773 20.6055-5.44922L21.3672-4.70703C21.8457-4.22852 22.4609-4.19922 22.9297-4.66797L25.8398-7.58789C26.3086-8.05664 26.2891-8.65234 25.8105-9.13086L25.0391-9.89258C24.5605-10.3711 24.1895-10.5273 23.7109-10.4883L23.1348-10.4395L22.4902-11.0742L22.7344-12.1973C22.8613-12.7637 22.7051-13.2031 22.1191-13.7891L19.9219-15.9766C16.582-19.2969 12.1484-19.2188 9.25781-16.3281C8.83789-15.918 8.80859-15.3418 9.04297-14.9512C9.27734-14.5898 9.73633-14.3555 10.3809-14.5215C11.8457-14.8633 13.3691-14.9219 14.7949-13.9844L14.209-12.5293C14.0137-12.0508 13.9844-11.6504 14.1113-11.2891L3.04688-0.898438C2.06055 0.0195312 1.98242 0.996094 2.8418 1.86523ZM10.752-15.957C13.1836-17.7344 16.4746-17.4316 18.7012-15.2051L21.1328-12.793C21.3672-12.5586 21.4062-12.373 21.3379-12.0312L21.0156-10.5469L22.5195-9.0625L23.5059-9.12109C23.7598-9.13086 23.8379-9.11133 24.0332-8.91602L24.6094-8.33984L22.168-5.89844L21.5918-6.47461C21.3965-6.66992 21.3672-6.74805 21.377-7.01172L21.4453-7.98828L19.9512-9.47266L18.4277-9.21875C18.1055-9.15039 17.959-9.17969 17.7148-9.41406L15.7129-11.416C15.459-11.6504 15.4297-11.8164 15.5859-12.1875L16.4648-14.2773C14.9023-15.7324 12.8711-16.3574 10.8398-15.7617C10.6836-15.7227 10.625-15.8496 10.752-15.957ZM5.27344 2.30469L4.10156 1.14258C3.63281 0.683594 3.74023 0.341797 4.14062-0.0195312L14.9512-10.1953L16.416-8.71094L6.42578 2.27539C6.07422 2.67578 5.74219 2.77344 5.27344 2.30469Z"/>
  </g>
  <text style="stroke:none;fill:black;font-family:-apple-system,&quot;SF Pro Display&quot;,&quot;SF Pro Text&quot;,Helvetica,sans-serif;font-weight:bold;" transform="matrix(1 0 0 1 1289 1953)">Exporting</text>
  <text style="stroke:none;fill:black;font-family:-apple-system,&quot;SF Pro Display&quot;,&quot;SF Pro Text&quot;,Helvetica,sans-serif;" transform="matrix(1 0 0 1 1289 1971)">Symbols should be outlined when exporting to ensure the</text>
  <text style="stroke:none;fill:black;font-family:-apple-system,&quot;SF Pro Display&quot;,&quot;SF Pro Text&quot;,Helvetica,sans-serif;" transform="matrix(1 0 0 1 1289 1989)">design is preserved when submitting to Xcode.</text>
  <text id="template-version" style="stroke:none;fill:black;font-family:-apple-system,&quot;SF Pro Display&quot;,&quot;SF Pro Text&quot;,Helvetica,sans-serif;text-anchor:end;" transform="matrix(1 0 0 1 3036 1933)">Template v.2.0</text>
  <text style="stroke:none;fill:black;font-family:-apple-system,&quot;SF Pro Display&quot;,&quot;SF Pro Text&quot;,Helvetica,sans-serif;text-anchor:end;" transform="matrix(1 0 0 1 3036 1951)">Requires Xcode 12 or greater</text>
  <text style="stroke:none;fill:black;font-family:-apple-system,&quot;SF Pro Display&quot;,&quot;SF Pro Text&quot;,Helvetica,sans-serif;text-anchor:end;" transform="matrix(1 0 0 1 3036 1969)">Generated from line.horizontal.3</text>
  <text style="stroke:none;fill:black;font-family:-apple-system,&quot;SF Pro Display&quot;,&quot;SF Pro Text&quot;,Helvetica,sans-serif;text-anchor:end;" transform="matrix(1 0 0 1 3036 1987)">Typeset at 100 points</text>
  <text style="stroke:none;fill:black;font-family:-apple-system,&quot;SF Pro Display&quot;,&quot;SF Pro Text&quot;,Helvetica,sans-serif;" transform="matrix(1 0 0 1 263 726)">Small</text>
  <text style="stroke:none;fill:black;font-family:-apple-system,&quot;SF Pro Display&quot;,&quot;SF Pro Text&quot;,Helvetica,sans-serif;" transform="matrix(1 0 0 1 263 1156)">Medium</text>
  <text style="stroke:none;fill:black;font-family:-apple-system,&quot;SF Pro Display&quot;,&quot;SF Pro Text&quot;,Helvetica,sans-serif;" transform="matrix(1 0 0 1 263 1586)">Large</text>
 </g>
 <g id="Guides">
  <g id="H-reference" style="fill:#27AAE1;stroke:none;" transform="matrix(1 0 0 1 339 696)">
   <path d="M0.976562 0L3.66211 0L12.9883-24.4629L45.752-24.4629L55.127 0L57.7637 0L30.6152-70.459L28.125-70.459ZM29.3457-67.1387L29.4434-67.1387L44.873-26.709L13.8672-26.709Z"/>
  </g>
  <line id="Baseline-S" style="fill:none;stroke:#27AAE1;opacity:1;stroke-width:0.5;" x1="263" x2="3036" y1="696" y2="696"/>
  <line id="Capline-S" style="fill:none;stroke:#27AAE1;opacity:1;stroke-width:0.5;" x1="263" x2="3036" y1="625.541" y2="625.541"/>
  <g id="H-reference" style="fill:#27AAE1;stroke:none;" transform="matrix(1 0 0 1 339 1126)">
   <path d="M0.976562 0L3.66211 0L12.9883-24.4629L45.752-24.4629L55.127 0L57.7637 0L30.6152-70.459L28.125-70.459ZM29.3457-67.1387L29.4434-67.1387L44.873-26.709L13.8672-26.709Z"/>
  </g>
  <line id="Baseline-M" style="fill:none;stroke:#27AAE1;opacity:1;stroke-width:0.5;" x1="263" x2="3036" y1="1126" y2="1126"/>
  <line id="Capline-M" style="fill:none;stroke:#27AAE1;opacity:1;stroke-width:0.5;" x1="263" x2="3036" y1="1055.54" y2="1055.54"/>
  <g id="H-reference" style="fill:#27AAE1;stroke:none;" transform="matrix(1 0 0 1 339 1556)">
   <path d="M0.976562 0L3.66211 0L12.9883-24.4629L45.752-24.4629L55.127 0L57.7637 0L30.6152-70.459L28.125-70.459ZM29.3457-67.1387L29.4434-67.1387L44.873-26.709L13.8672-26.709Z"/>
  </g>
  <line id="Baseline-L" style="fill:none;stroke:#27AAE1;opacity:1;stroke-width:0.5;" x1="263" x2="3036" y1="1556" y2="1556"/>
  <line id="Capline-L" style="fill:none;stroke:#27AAE1;opacity:1;stroke-width:0.5;" x1="263" x2="3036" y1="1485.54" y2="1485.54"/>
  <line id="left-margin" style="fill:none;stroke:#00AEEF;stroke-width:0.5;opacity:1.0;" x1="1388" x2="1388" y1="1030.79" y2="1150.12"/>
  <line id="right-margin" style="fill:none;stroke:#00AEEF;stroke-width:0.5;opacity:1.0;" x1="1511.69" x2="1511.69" y1="1030.79" y2="1150.12"/>
 </g>
 <g id="Symbols">
  <g id="Black-L" transform="matrix(1 0 0 1 2849.86 1556)">
   <path d="M24.9023-57.4219L142.188-57.4219C147.119-57.4219 151.025-61.7188 151.025-66.5527C151.025-71.5332 147.168-75.6836 142.188-75.6836L24.9023-75.6836C19.9707-75.6836 16.0645-71.4355 16.0645-66.5527C16.0645-61.8164 20.0195-57.4219 24.9023-57.4219ZM24.9023-26.123L142.188-26.123C147.119-26.123 151.025-30.4199 151.025-35.2539C151.025-40.2832 147.168-44.3848 142.188-44.3848L24.9023-44.3848C19.9707-44.3848 16.0645-40.1367 16.0645-35.2539C16.0645-30.5176 20.0195-26.123 24.9023-26.123ZM24.9023 5.22461L142.188 5.22461C147.119 5.22461 151.025 0.927734 151.025-3.90625C151.025-8.93555 147.168-13.0371 142.188-13.0371L24.9023-13.0371C19.9707-13.0371 16.0645-8.78906 16.0645-3.90625C16.0645 0.830078 20.0195 5.22461 24.9023 5.22461Z"/>
  </g>
  <g id="Heavy-L" transform="matrix(1 0 0 1 2554.12 1556)">
   <path d="M23.7793-57.8125L141.309-57.8125C145.605-57.8125 149.072-61.5234 149.072-65.7715C149.072-70.1172 145.654-73.6816 141.309-73.6816L23.7793-73.6816C19.4824-73.6816 16.0645-70.0195 16.0645-65.7715C16.0645-61.6211 19.5312-57.8125 23.7793-57.8125ZM23.7793-27.2949L141.309-27.2949C145.605-27.2949 149.072-31.0059 149.072-35.2051C149.072-39.5996 145.654-43.1641 141.309-43.1641L23.7793-43.1641C19.4824-43.1641 16.0645-39.502 16.0645-35.2051C16.0645-31.0547 19.5312-27.2949 23.7793-27.2949ZM23.7793 3.32031L141.309 3.32031C145.605 3.32031 149.072-0.390625 149.072-4.63867C149.072-8.98438 145.654-12.5977 141.309-12.5977L23.7793-12.5977C19.4824-12.5977 16.0645-8.93555 16.0645-4.63867C16.0645-0.488281 19.5312 3.32031 23.7793 3.32031Z"/>
  </g>
  <g id="Bold-L" transform="matrix(1 0 0 1 2258.53 1556)">
   <path d="M22.5098-58.3008L140.332-58.3008C143.945-58.3008 146.826-61.3281 146.826-64.8926C146.826-68.5059 143.994-71.4844 140.332-71.4844L22.5098-71.4844C18.8965-71.4844 16.0645-68.457 16.0645-64.8926C16.0645-61.377 18.9453-58.3008 22.5098-58.3008ZM22.5098-28.5645L140.332-28.5645C143.945-28.5645 146.826-31.6406 146.826-35.1562C146.826-38.8672 143.994-41.7969 140.332-41.7969L22.5098-41.7969C18.8965-41.7969 16.0645-38.7695 16.0645-35.1562C16.0645-31.6895 18.9453-28.5645 22.5098-28.5645ZM22.5098 1.17188L140.332 1.17188C143.945 1.17188 146.826-1.85547 146.826-5.46875C146.826-9.08203 143.994-12.0605 140.332-12.0605L22.5098-12.0605C18.8965-12.0605 16.0645-9.0332 16.0645-5.46875C16.0645-1.95312 18.9453 1.17188 22.5098 1.17188Z"/>
  </g>
  <g id="Semibold-L" transform="matrix(1 0 0 1 1962.58 1556)">
   <path d="M21.6797-58.5938L139.648-58.5938C142.773-58.5938 145.312-61.1816 145.312-64.3066C145.312-67.4316 142.822-69.9707 139.648-69.9707L21.6797-69.9707C18.5547-69.9707 16.0645-67.3828 16.0645-64.3066C16.0645-61.2305 18.5547-58.5938 21.6797-58.5938ZM21.6797-29.4434L139.648-29.4434C142.773-29.4434 145.312-32.0801 145.312-35.1562C145.312-38.3301 142.822-40.8691 139.648-40.8691L21.6797-40.8691C18.5547-40.8691 16.0645-38.2812 16.0645-35.1562C16.0645-32.0801 18.5547-29.4434 21.6797-29.4434ZM21.6797-0.292969L139.648-0.292969C142.773-0.292969 145.312-2.88086 145.312-6.00586C145.312-9.17969 142.822-11.7188 139.648-11.7188L21.6797-11.7188C18.5547-11.7188 16.0645-9.13086 16.0645-6.00586C16.0645-2.92969 18.5547-0.292969 21.6797-0.292969Z"/>
  </g>
  <g id="Medium-L" transform="matrix(1 0 0 1 1666.45 1556)">
   <path d="M20.9961-58.8379L139.16-58.8379C141.895-58.8379 144.141-61.084 144.141-63.8184C144.141-66.6016 141.943-68.7988 139.16-68.7988L20.9961-68.7988C18.2617-68.7988 16.0645-66.5527 16.0645-63.8184C16.0645-61.1328 18.2617-58.8379 20.9961-58.8379ZM20.9961-30.127L139.16-30.127C141.895-30.127 144.141-32.373 144.141-35.1074C144.141-37.9395 141.943-40.1367 139.16-40.1367L20.9961-40.1367C18.2617-40.1367 16.0645-37.8906 16.0645-35.1074C16.0645-32.4219 18.2617-30.127 20.9961-30.127ZM20.9961-1.41602L139.16-1.41602C141.895-1.41602 144.141-3.66211 144.141-6.44531C144.141-9.22852 141.943-11.4258 139.16-11.4258L20.9961-11.4258C18.2617-11.4258 16.0645-9.17969 16.0645-6.44531C16.0645-3.71094 18.2617-1.41602 20.9961-1.41602Z"/>
  </g>
  <g id="Regular-L" transform="matrix(1 0 0 1 1370.5 1556)">
   <path d="M20.166-59.1797L138.477-59.1797C140.771-59.1797 142.627-60.9863 142.627-63.2324C142.627-65.5273 140.771-67.334 138.477-67.334L20.166-67.334C17.8711-67.334 16.0645-65.5273 16.0645-63.2324C16.0645-60.9863 17.8711-59.1797 20.166-59.1797ZM20.166-31.0059L138.477-31.0059C140.771-31.0059 142.627-32.8125 142.627-35.1074C142.627-37.4023 140.771-39.209 138.477-39.209L20.166-39.209C17.8711-39.209 16.0645-37.4023 16.0645-35.1074C16.0645-32.8125 17.8711-31.0059 20.166-31.0059ZM20.166-2.88086L138.477-2.88086C140.771-2.88086 142.627-4.6875 142.627-7.03125C142.627-9.27734 140.771-11.084 138.477-11.084L20.166-11.084C17.8711-11.084 16.0645-9.27734 16.0645-7.03125C16.0645-4.6875 17.8711-2.88086 20.166-2.88086Z"/>
  </g>
  <g id="Light-L" transform="matrix(1 0 0 1 1074.42 1556)">
   <path d="M19.2383-60.9375L138.184-60.9375C139.941-60.9375 141.357-62.3535 141.357-64.0625C141.357-65.8203 139.941-67.2363 138.184-67.2363L19.2383-67.2363C17.4805-67.2363 16.0645-65.8203 16.0645-64.0625C16.0645-62.3535 17.4805-60.9375 19.2383-60.9375ZM19.2383-31.8848L138.184-31.8848C139.941-31.8848 141.357-33.3008 141.357-35.0586C141.357-36.8164 139.941-38.2324 138.184-38.2324L19.2383-38.2324C17.4805-38.2324 16.0645-36.8164 16.0645-35.0586C16.0645-33.3008 17.4805-31.8848 19.2383-31.8848ZM19.2383-2.83203L138.184-2.83203C139.941-2.83203 141.357-4.24805 141.357-6.00586C141.357-7.76367 139.941-9.17969 138.184-9.17969L19.2383-9.17969C17.4805-9.17969 16.0645-7.76367 16.0645-6.00586C16.0645-4.24805 17.4805-2.83203 19.2383-2.83203Z"/>
  </g>
  <g id="Thin-L" transform="matrix(1 0 0 1 778.541 1556)">
   <path d="M18.0176-63.2812L137.793-63.2812C138.818-63.2812 139.697-64.1602 139.697-65.1855C139.697-66.2598 138.818-67.1387 137.793-67.1387L18.0176-67.1387C16.9434-67.1387 16.0645-66.2598 16.0645-65.1855C16.0645-64.1602 16.9434-63.2812 18.0176-63.2812ZM18.0176-33.0566L137.793-33.0566C138.818-33.0566 139.697-33.8867 139.697-34.9609C139.697-36.0352 138.818-36.9141 137.793-36.9141L18.0176-36.9141C16.9434-36.9141 16.0645-36.0352 16.0645-34.9609C16.0645-33.8867 16.9434-33.0566 18.0176-33.0566ZM18.0176-2.7832L137.793-2.7832C138.818-2.7832 139.697-3.66211 139.697-4.73633C139.697-5.81055 138.818-6.64062 137.793-6.64062L18.0176-6.64062C16.9434-6.64062 16.0645-5.81055 16.0645-4.73633C16.0645-3.66211 16.9434-2.7832 18.0176-2.7832Z"/>
  </g>
  <g id="Ultralight-L" transform="matrix(1 0 0 1 482.245 1556)">
   <path d="M17.3828-64.502L137.549-64.502C138.281-64.502 138.867-65.0879 138.867-65.7715C138.867-66.5039 138.281-67.0898 137.549-67.0898L17.3828-67.0898C16.6504-67.0898 16.0645-66.5039 16.0645-65.7715C16.0645-65.0879 16.6504-64.502 17.3828-64.502ZM17.3828-33.6426L137.549-33.6426C138.281-33.6426 138.867-34.2285 138.867-34.9121C138.867-35.6445 138.281-36.2305 137.549-36.2305L17.3828-36.2305C16.6504-36.2305 16.0645-35.6445 16.0645-34.9121C16.0645-34.2285 16.6504-33.6426 17.3828-33.6426ZM17.3828-2.7832L137.549-2.7832C138.281-2.7832 138.867-3.36914 138.867-4.05273C138.867-4.78516 138.281-5.37109 137.549-5.37109L17.3828-5.37109C16.6504-5.37109 16.0645-4.78516 16.0645-4.05273C16.0645-3.36914 16.6504-2.7832 17.3828-2.7832Z"/>
  </g>
  <g id="Black-M" transform="matrix(1 0 0 1 2867.65 1126)">
   <path d="M20.3125-52.7832L111.182-52.7832C115.625-52.7832 119.043-56.7383 119.043-60.9863C119.043-65.4785 115.674-69.1895 111.182-69.1895L20.3125-69.1895C15.918-69.1895 12.4512-65.332 12.4512-60.9863C12.4512-56.8359 15.9668-52.7832 20.3125-52.7832ZM20.3125-27.0508L111.182-27.0508C115.625-27.0508 119.043-30.957 119.043-35.2539C119.043-39.7461 115.674-43.457 111.182-43.457L20.3125-43.457C15.918-43.457 12.4512-39.5996 12.4512-35.2539C12.4512-31.1035 15.9668-27.0508 20.3125-27.0508ZM20.3125-1.26953L111.182-1.26953C115.625-1.26953 119.043-5.17578 119.043-9.47266C119.043-13.916 115.674-17.6758 111.182-17.6758L20.3125-17.6758C15.918-17.6758 12.4512-13.8184 12.4512-9.47266C12.4512-5.32227 15.9668-1.26953 20.3125-1.26953Z"/>
  </g>
  <g id="Heavy-M" transform="matrix(1 0 0 1 2571.85 1126)">
   <path d="M19.3359-52.7832L110.303-52.7832C114.16-52.7832 117.236-56.1523 117.236-59.9121C117.236-63.8184 114.209-67.041 110.303-67.041L19.3359-67.041C15.4785-67.041 12.4512-63.7207 12.4512-59.9121C12.4512-56.25 15.5273-52.7832 19.3359-52.7832ZM19.3359-28.125L110.303-28.125C114.16-28.125 117.236-31.4941 117.236-35.2539C117.236-39.1602 114.209-42.3828 110.303-42.3828L19.3359-42.3828C15.4785-42.3828 12.4512-39.0625 12.4512-35.2539C12.4512-31.5918 15.5273-28.125 19.3359-28.125ZM19.3359-3.36914L110.303-3.36914C114.16-3.36914 117.236-6.73828 117.236-10.498C117.236-14.4043 114.209-17.627 110.303-17.627L19.3359-17.627C15.4785-17.627 12.4512-14.3066 12.4512-10.498C12.4512-6.83594 15.5273-3.36914 19.3359-3.36914Z"/>
  </g>
  <g id="Bold-M" transform="matrix(1 0 0 1 2276.18 1126)">
   <path d="M18.2129-52.7832L109.375-52.7832C112.598-52.7832 115.137-55.5664 115.137-58.7402C115.137-62.0117 112.598-64.6484 109.375-64.6484L18.2129-64.6484C14.9902-64.6484 12.4512-61.9141 12.4512-58.7402C12.4512-55.6152 15.0391-52.7832 18.2129-52.7832ZM18.2129-29.248L109.375-29.248C112.598-29.248 115.137-32.0312 115.137-35.2051C115.137-38.4766 112.598-41.1621 109.375-41.1621L18.2129-41.1621C14.9902-41.1621 12.4512-38.4277 12.4512-35.2051C12.4512-32.1289 15.0391-29.248 18.2129-29.248ZM18.2129-5.71289L109.375-5.71289C112.598-5.71289 115.137-8.49609 115.137-11.6699C115.137-14.9414 112.598-17.627 109.375-17.627L18.2129-17.627C14.9902-17.627 12.4512-14.8926 12.4512-11.6699C12.4512-8.54492 15.0391-5.71289 18.2129-5.71289Z"/>
  </g>
  <g id="Semibold-M" transform="matrix(1 0 0 1 1980.18 1126)">
   <path d="M17.4805-52.7832L108.691-52.7832C111.475-52.7832 113.721-55.127 113.721-57.9102C113.721-60.7422 111.523-63.0371 108.691-63.0371L17.4805-63.0371C14.6484-63.0371 12.4512-60.6934 12.4512-57.9102C12.4512-55.1758 14.6973-52.7832 17.4805-52.7832ZM17.4805-30.0781L108.691-30.0781C111.475-30.0781 113.721-32.4219 113.721-35.2051C113.721-38.0371 111.523-40.332 108.691-40.332L17.4805-40.332C14.6484-40.332 12.4512-37.9883 12.4512-35.2051C12.4512-32.4707 14.6973-30.0781 17.4805-30.0781ZM17.4805-7.32422L108.691-7.32422C111.475-7.32422 113.721-9.7168 113.721-12.5C113.721-15.332 111.523-17.627 108.691-17.627L17.4805-17.627C14.6484-17.627 12.4512-15.2832 12.4512-12.5C12.4512-9.76562 14.6973-7.32422 17.4805-7.32422Z"/>
  </g>
  <g id="Medium-M" transform="matrix(1 0 0 1 1684.01 1126)">
   <path d="M16.8945-52.7832L108.154-52.7832C110.645-52.7832 112.646-54.834 112.646-57.2754C112.646-59.7656 110.645-61.7676 108.154-61.7676L16.8945-61.7676C14.4043-61.7676 12.4512-59.7168 12.4512-57.2754C12.4512-54.834 14.4043-52.7832 16.8945-52.7832ZM16.8945-30.6641L108.154-30.6641C110.645-30.6641 112.646-32.7148 112.646-35.1562C112.646-37.6953 110.645-39.6973 108.154-39.6973L16.8945-39.6973C14.4043-39.6973 12.4512-37.6953 12.4512-35.1562C12.4512-32.7637 14.4043-30.6641 16.8945-30.6641ZM16.8945-8.59375L108.154-8.59375C110.645-8.59375 112.646-10.5957 112.646-13.1348C112.646-15.5762 110.645-17.627 108.154-17.627L16.8945-17.627C14.4043-17.627 12.4512-15.5762 12.4512-13.1348C12.4512-10.6445 14.4043-8.59375 16.8945-8.59375Z"/>
  </g>
  <g id="Regular-M" transform="matrix(1 0 0 1 1388 1126)">
   <path d="M16.1133-52.7832L107.52-52.7832C109.57-52.7832 111.23-54.3945 111.23-56.4453C111.23-58.4961 109.57-60.1562 107.52-60.1562L16.1133-60.1562C14.0625-60.1562 12.4512-58.4961 12.4512-56.4453C12.4512-54.3945 14.0625-52.7832 16.1133-52.7832ZM16.1133-31.4941L107.52-31.4941C109.57-31.4941 111.23-33.1055 111.23-35.1562C111.23-37.2559 109.57-38.916 107.52-38.916L16.1133-38.916C14.0625-38.916 12.4512-37.2559 12.4512-35.1562C12.4512-33.1055 14.0625-31.4941 16.1133-31.4941ZM16.1133-10.1562L107.52-10.1562C109.57-10.1562 111.23-11.8164 111.23-13.916C111.23-15.9668 109.57-17.5781 107.52-17.5781L16.1133-17.5781C14.0625-17.5781 12.4512-15.9668 12.4512-13.916C12.4512-11.8164 14.0625-10.1562 16.1133-10.1562Z"/>
  </g>
  <g id="Light-M" transform="matrix(1 0 0 1 1091.85 1126)">
   <path d="M15.332-54.3457L107.227-54.3457C108.838-54.3457 110.107-55.6152 110.107-57.2266C110.107-58.7891 108.838-60.0586 107.227-60.0586L15.332-60.0586C13.7207-60.0586 12.4512-58.7891 12.4512-57.2266C12.4512-55.6152 13.7207-54.3457 15.332-54.3457ZM15.332-32.2266L107.227-32.2266C108.838-32.2266 110.107-33.4961 110.107-35.1074C110.107-36.7188 108.838-37.9883 107.227-37.9883L15.332-37.9883C13.7207-37.9883 12.4512-36.7188 12.4512-35.1074C12.4512-33.4961 13.7207-32.2266 15.332-32.2266ZM15.332-10.1562L107.227-10.1562C108.838-10.1562 110.107-11.4258 110.107-13.0371C110.107-14.6484 108.838-15.918 107.227-15.918L15.332-15.918C13.7207-15.918 12.4512-14.6484 12.4512-13.0371C12.4512-11.4258 13.7207-10.1562 15.332-10.1562Z"/>
  </g>
  <g id="Thin-M" transform="matrix(1 0 0 1 795.875 1126)">
   <path d="M14.209-56.4453L106.885-56.4453C107.812-56.4453 108.643-57.2266 108.643-58.2031C108.643-59.1797 107.812-59.9609 106.885-59.9609L14.209-59.9609C13.2324-59.9609 12.4512-59.1797 12.4512-58.2031C12.4512-57.2266 13.2324-56.4453 14.209-56.4453ZM14.209-33.3008L106.885-33.3008C107.812-33.3008 108.643-34.082 108.643-35.0586C108.643-36.0352 107.812-36.8164 106.885-36.8164L14.209-36.8164C13.2324-36.8164 12.4512-36.0352 12.4512-35.0586C12.4512-34.082 13.2324-33.3008 14.209-33.3008ZM14.209-10.1074L106.885-10.1074C107.812-10.1074 108.643-10.8887 108.643-11.8652C108.643-12.8418 107.812-13.623 106.885-13.623L14.209-13.623C13.2324-13.623 12.4512-12.8418 12.4512-11.8652C12.4512-10.8887 13.2324-10.1074 14.209-10.1074Z"/>
  </g>
  <g id="Ultralight-M" transform="matrix(1 0 0 1 499.555 1126)">
   <path d="M13.6719-57.5195L106.689-57.5195C107.324-57.5195 107.861-58.0566 107.861-58.7402C107.861-59.375 107.324-59.9609 106.689-59.9609L13.6719-59.9609C12.9883-59.9609 12.4512-59.375 12.4512-58.7402C12.4512-58.0566 12.9883-57.5195 13.6719-57.5195ZM13.6719-33.7891L106.689-33.7891C107.324-33.7891 107.861-34.3262 107.861-35.0098C107.861-35.6445 107.324-36.2305 106.689-36.2305L13.6719-36.2305C12.9883-36.2305 12.4512-35.6445 12.4512-35.0098C12.4512-34.3262 12.9883-33.7891 13.6719-33.7891ZM13.6719-10.0586L106.689-10.0586C107.324-10.0586 107.861-10.6445 107.861-11.2793C107.861-11.9629 107.324-12.5 106.689-12.5L13.6719-12.5C12.9883-12.5 12.4512-11.9629 12.4512-11.2793C12.4512-10.6445 12.9883-10.0586 13.6719-10.0586Z"/>
  </g>
  <g id="Black-S" transform="matrix(1 0 0 1 2881.94 696)">
   <path d="M15.8691-48.9746L87.0605-48.9746C90.4785-48.9746 93.1641-52.002 93.1641-55.3223C93.1641-58.7891 90.5273-61.6699 87.0605-61.6699L15.8691-61.6699C12.4512-61.6699 9.76562-58.6914 9.76562-55.3223C9.76562-52.0996 12.5-48.9746 15.8691-48.9746ZM15.8691-28.9062L87.0605-28.9062C90.4785-28.9062 93.1641-31.9336 93.1641-35.2539C93.1641-38.7207 90.5273-41.6016 87.0605-41.6016L15.8691-41.6016C12.4512-41.6016 9.76562-38.623 9.76562-35.2539C9.76562-32.0312 12.5-28.9062 15.8691-28.9062ZM15.8691-8.78906L87.0605-8.78906C90.4785-8.78906 93.1641-11.8164 93.1641-15.1367C93.1641-18.6035 90.5273-21.4844 87.0605-21.4844L15.8691-21.4844C12.4512-21.4844 9.76562-18.5059 9.76562-15.1367C9.76562-11.9141 12.5-8.78906 15.8691-8.78906Z"/>
  </g>
  <g id="Heavy-S" transform="matrix(1 0 0 1 2585.86 696)">
   <path d="M15.1855-48.7793L86.4258-48.7793C89.4531-48.7793 91.8945-51.4648 91.8945-54.3945C91.8945-57.5195 89.502-60.0586 86.4258-60.0586L15.1855-60.0586C12.1582-60.0586 9.76562-57.4219 9.76562-54.3945C9.76562-51.5137 12.207-48.7793 15.1855-48.7793ZM15.1855-29.6387L86.4258-29.6387C89.4531-29.6387 91.8945-32.2754 91.8945-35.2539C91.8945-38.3301 89.502-40.8691 86.4258-40.8691L15.1855-40.8691C12.1582-40.8691 9.76562-38.2812 9.76562-35.2539C9.76562-32.3242 12.207-29.6387 15.1855-29.6387ZM15.1855-10.4004L86.4258-10.4004C89.4531-10.4004 91.8945-13.0371 91.8945-16.0156C91.8945-19.1406 89.502-21.6797 86.4258-21.6797L15.1855-21.6797C12.1582-21.6797 9.76562-19.043 9.76562-16.0156C9.76562-13.1348 12.207-10.4004 15.1855-10.4004Z"/>
  </g>
  <g id="Bold-S" transform="matrix(1 0 0 1 2289.88 696)">
   <path d="M14.4531-48.584L85.7422-48.584C88.3301-48.584 90.4297-50.8301 90.4297-53.418C90.4297-56.0547 88.3789-58.2031 85.7422-58.2031L14.4531-58.2031C11.8164-58.2031 9.76562-56.0059 9.76562-53.418C9.76562-50.8789 11.8652-48.584 14.4531-48.584ZM14.4531-30.4199L85.7422-30.4199C88.3301-30.4199 90.4297-32.666 90.4297-35.2051C90.4297-37.8906 88.3789-40.0879 85.7422-40.0879L14.4531-40.0879C11.8164-40.0879 9.76562-37.8418 9.76562-35.2051C9.76562-32.7148 11.8652-30.4199 14.4531-30.4199ZM14.4531-12.207L85.7422-12.207C88.3301-12.207 90.4297-14.4531 90.4297-17.041C90.4297-19.6777 88.3789-21.875 85.7422-21.875L14.4531-21.875C11.8164-21.875 9.76562-19.6289 9.76562-17.041C9.76562-14.502 11.8652-12.207 14.4531-12.207Z"/>
  </g>
  <g id="Semibold-S" transform="matrix(1 0 0 1 1993.66 696)">
   <path d="M13.9648-48.4375L85.2539-48.4375C87.5488-48.4375 89.4531-50.3906 89.4531-52.6855C89.4531-55.0781 87.5977-56.9824 85.2539-56.9824L13.9648-56.9824C11.6211-56.9824 9.76562-55.0293 9.76562-52.6855C9.76562-50.4395 11.6211-48.4375 13.9648-48.4375ZM13.9648-30.957L85.2539-30.957C87.5488-30.957 89.4531-32.9102 89.4531-35.2051C89.4531-37.5977 87.5977-39.502 85.2539-39.502L13.9648-39.502C11.6211-39.502 9.76562-37.5488 9.76562-35.2051C9.76562-32.959 11.6211-30.957 13.9648-30.957ZM13.9648-13.4277L85.2539-13.4277C87.5488-13.4277 89.4531-15.3809 89.4531-17.7246C89.4531-20.1172 87.5977-22.0215 85.2539-22.0215L13.9648-22.0215C11.6211-22.0215 9.76562-20.0684 9.76562-17.7246C9.76562-15.4297 11.6211-13.4277 13.9648-13.4277Z"/>
  </g>
  <g id="Medium-S" transform="matrix(1 0 0 1 1697.31 696)">
   <path d="M13.5742-48.3398L84.8633-48.3398C86.9629-48.3398 88.7207-50.0977 88.7207-52.1973C88.7207-54.2969 87.0117-56.0059 84.8633-56.0059L13.5742-56.0059C11.4258-56.0059 9.76562-54.2969 9.76562-52.1973C9.76562-50.0977 11.4746-48.3398 13.5742-48.3398ZM13.5742-31.3477L84.8633-31.3477C86.9629-31.3477 88.7207-33.1055 88.7207-35.2051C88.7207-37.3535 87.0117-39.0625 84.8633-39.0625L13.5742-39.0625C11.4258-39.0625 9.76562-37.3535 9.76562-35.2051C9.76562-33.1055 11.4746-31.3477 13.5742-31.3477ZM13.5742-14.4043L84.8633-14.4043C86.9629-14.4043 88.7207-16.1133 88.7207-18.2617C88.7207-20.4102 87.0117-22.1191 84.8633-22.1191L13.5742-22.1191C11.4258-22.1191 9.76562-20.3613 9.76562-18.2617C9.76562-16.1621 11.4746-14.4043 13.5742-14.4043Z"/>
  </g>
  <g id="Regular-S" transform="matrix(1 0 0 1 1401.11 696)">
   <path d="M13.0371-48.1934L84.375-48.1934C86.2305-48.1934 87.6953-49.6582 87.6953-51.4648C87.6953-53.3203 86.2305-54.7852 84.375-54.7852L13.0371-54.7852C11.2305-54.7852 9.76562-53.3203 9.76562-51.4648C9.76562-49.6582 11.2305-48.1934 13.0371-48.1934ZM13.0371-31.8848L84.375-31.8848C86.2305-31.8848 87.6953-33.3496 87.6953-35.2051C87.6953-37.0605 86.2305-38.5254 84.375-38.5254L13.0371-38.5254C11.2305-38.5254 9.76562-37.0605 9.76562-35.2051C9.76562-33.3496 11.2305-31.8848 13.0371-31.8848ZM13.0371-15.625L84.375-15.625C86.2305-15.625 87.6953-17.0898 87.6953-18.9453C87.6953-20.8008 86.2305-22.2656 84.375-22.2656L13.0371-22.2656C11.2305-22.2656 9.76562-20.8008 9.76562-18.9453C9.76562-17.0898 11.2305-15.625 13.0371-15.625Z"/>
  </g>
  <g id="Light-S" transform="matrix(1 0 0 1 1104.89 696)">
   <path d="M12.3047-49.6094L84.1309-49.6094C85.5469-49.6094 86.7188-50.7324 86.7188-52.1484C86.7188-53.5645 85.5469-54.7363 84.1309-54.7363L12.3047-54.7363C10.8887-54.7363 9.76562-53.5645 9.76562-52.1484C9.76562-50.7324 10.8887-49.6094 12.3047-49.6094ZM12.3047-32.6172L84.1309-32.6172C85.5469-32.6172 86.7188-33.7402 86.7188-35.1562C86.7188-36.6211 85.5469-37.7441 84.1309-37.7441L12.3047-37.7441C10.8887-37.7441 9.76562-36.6211 9.76562-35.1562C9.76562-33.7402 10.8887-32.6172 12.3047-32.6172ZM12.3047-15.5762L84.1309-15.5762C85.5469-15.5762 86.7188-16.748 86.7188-18.1641C86.7188-19.5801 85.5469-20.752 84.1309-20.752L12.3047-20.752C10.8887-20.752 9.76562-19.5801 9.76562-18.1641C9.76562-16.748 10.8887-15.5762 12.3047-15.5762Z"/>
  </g>
  <g id="Thin-S" transform="matrix(1 0 0 1 808.839 696)">
   <path d="M11.377-51.4648L83.7891-51.4648C84.668-51.4648 85.4004-52.1484 85.4004-53.0273C85.4004-53.9062 84.668-54.6387 83.7891-54.6387L11.377-54.6387C10.498-54.6387 9.76562-53.9062 9.76562-53.0273C9.76562-52.1484 10.498-51.4648 11.377-51.4648ZM11.377-33.4961L83.7891-33.4961C84.668-33.4961 85.4004-34.2285 85.4004-35.1074C85.4004-35.9863 84.668-36.7188 83.7891-36.7188L11.377-36.7188C10.498-36.7188 9.76562-35.9863 9.76562-35.1074C9.76562-34.2285 10.498-33.4961 11.377-33.4961ZM11.377-15.5762L83.7891-15.5762C84.668-15.5762 85.4004-16.2598 85.4004-17.1387C85.4004-18.0176 84.668-18.75 83.7891-18.75L11.377-18.75C10.498-18.75 9.76562-18.0176 9.76562-17.1387C9.76562-16.2598 10.498-15.5762 11.377-15.5762Z"/>
  </g>
  <g id="Ultralight-S" transform="matrix(1 0 0 1 512.47 696)">
   <path d="M10.8398-52.4414L83.6426-52.4414C84.2285-52.4414 84.7168-52.9297 84.7168-53.5156C84.7168-54.1016 84.2285-54.5898 83.6426-54.5898L10.8398-54.5898C10.2539-54.5898 9.76562-54.1016 9.76562-53.5156C9.76562-52.9297 10.2539-52.4414 10.8398-52.4414ZM10.8398-33.9844L83.6426-33.9844C84.2285-33.9844 84.7168-34.4727 84.7168-35.0586C84.7168-35.6445 84.2285-36.1816 83.6426-36.1816L10.8398-36.1816C10.2539-36.1816 9.76562-35.6445 9.76562-35.0586C9.76562-34.4727 10.2539-33.9844 10.8398-33.9844ZM10.8398-15.5273L83.6426-15.5273C84.2285-15.5273 84.7168-16.0156 84.7168-16.6016C84.7168-17.2363 84.2285-17.7246 83.6426-17.7246L10.8398-17.7246C10.2539-17.7246 9.76562-17.2363 9.76562-16.6016C9.76562-16.0156 10.2539-15.5273 10.8398-15.5273Z"/>
  </g>
 </g>
</svg>
